# xmcd CD database file
#
# Track frame offsets:
#	150
#	13610
#	27897
#	41137
#	56120
#	71045
#	85100
#	98907
#	112530
#	125420
#	132607
#
# Disc length: 1919 seconds
#
# Revision: 4
# Processed by: cddbd v1.4PL0 Copyright (c) Steve Scherf et al.
# Submitted via: CDex 1.50Beta7
#
DISCID=91077d0b
DTITLE=Stina Nordenstam - This Is
DYEAR=2002
DGENRE=Ballad
TTITLE0=Everyone Else In The World
TTITLE1=Trainsurfing
TTITLE2=So Lee
TTITLE3=The Diver
TTITLE4=Circus
TTITLE5=Stations
TTITLE6=Keen Yellow Planet
TTITLE7=Lori Glory
TTITLE8=Welome To Happiness
TTITLE9=Clothe Yourself For The Wind
TTITLE10=Sharon and Hope
EXTD=YEAR: 2002
EXTT0=
EXTT1=
EXTT2=
EXTT3=
EXTT4=
EXTT5=
EXTT6=
EXTT7=
EXTT8=
EXTT9=
EXTT10=
PLAYORDER=
